<?xml version="1.0" standalone="no"?>
<!DOCTYPE svg PUBLIC "-//W3C//DTD SVG 20010904//EN"
 "http://www.w3.org/TR/2001/REC-SVG-20010904/DTD/svg10.dtd">
<svg version="1.0" xmlns="http://www.w3.org/2000/svg"
 width="932.000000pt" height="307.000000pt" viewBox="0 0 932.000000 307.000000"
 preserveAspectRatio="xMidYMid meet">

<g transform="translate(0.000000,307.000000) scale(0.100000,-0.100000)"
fill="#000000" stroke="none">
<path d="M10 1535 l0 -1525 463 2 462 3 0 50 0 50 -408 0 -407 0 0 1418 0
1417 1664 0 c1655 0 1664 0 1669 -20 4 -16 14 -20 47 -20 l41 0 -3 73 -3 72
-1762 3 -1763 2 0 -1525z"/>
<path d="M5790 2985 l0 -75 36 0 c27 0 37 5 41 20 5 20 14 20 1669 20 l1664 0
0 -1415 0 -1415 -377 -2 -378 -3 -3 -53 -3 -52 433 2 433 3 3 1523 2 1522
-1760 0 -1760 0 0 -75z"/>
<path d="M1193 2355 c-128 -35 -241 -121 -287 -220 -54 -114 -58 -250 -10
-354 59 -130 161 -191 454 -272 183 -50 245 -91 271 -180 16 -51 -1 -129 -37
-176 -82 -108 -321 -121 -506 -27 -25 13 -74 49 -108 80 -35 33 -65 53 -69 48
-5 -5 -34 -49 -65 -98 -65 -104 -66 -96 41 -172 79 -58 190 -108 280 -128 92
-21 269 -21 348 -1 141 36 268 134 320 247 49 108 54 245 14 353 -29 78 -73
130 -156 184 -73 49 -101 59 -396 150 -109 34 -150 58 -172 101 -33 63 -7 167
52 208 45 31 91 42 175 42 98 0 199 -32 294 -91 36 -23 69 -38 73 -33 4 5 34
47 65 94 l58 85 -33 28 c-52 43 -207 116 -285 132 -86 18 -252 18 -321 0z"/>
<path d="M2400 1590 l0 -720 125 0 125 0 0 218 0 217 87 88 c47 48 89 87 93
87 5 0 106 -132 225 -294 119 -162 222 -299 229 -305 14 -12 326 -21 326 -10
0 4 -10 20 -23 36 -13 15 -88 114 -167 218 -79 105 -165 217 -190 250 -25 33
-88 115 -139 183 l-92 122 58 64 c32 34 157 170 278 302 121 131 223 241 227
242 5 2 8 8 8 13 0 5 -69 9 -158 9 l-157 0 -150 -172 c-213 -244 -437 -492
-447 -496 -4 -2 -8 147 -8 332 l0 336 -125 0 -125 0 0 -720z"/>
<path d="M4050 1823 c0 -538 2 -555 62 -680 42 -85 140 -187 225 -231 96 -50
197 -72 332 -72 134 0 216 17 307 62 128 64 221 174 271 323 l28 80 3 503 3
502 -125 0 -125 0 -3 -487 c-3 -484 -3 -488 -26 -545 -33 -82 -108 -161 -180
-189 -80 -32 -233 -32 -312 -1 -91 36 -160 113 -191 213 -18 56 -19 97 -19
535 l0 474 -125 0 -125 0 0 -487z"/>
<path d="M5830 2215 l0 -95 348 0 c192 0 351 -2 354 -5 3 -3 -70 -119 -162
-258 -147 -222 -540 -827 -614 -945 -19 -31 -23 -44 -14 -47 7 -3 270 -4 583
-3 l570 3 3 114 3 113 -366 -4 c-212 -2 -365 0 -365 5 0 5 87 142 194 305 106
164 280 430 386 592 106 162 195 301 197 308 4 9 -111 12 -556 12 l-561 0 0
-95z"/>
<path d="M7373 2173 c110 -189 381 -662 406 -712 20 -38 21 -57 21 -316 l0
-275 125 0 125 0 0 277 0 276 81 146 c45 80 116 205 157 276 118 204 244 418
260 443 l14 22 -148 0 -149 0 -139 -262 c-76 -145 -152 -287 -169 -316 l-29
-54 -27 49 c-15 26 -92 168 -170 316 l-144 267 -147 0 -148 0 81 -137z"/>
<path d="M1252 310 c-13 -6 -29 -26 -38 -45 -37 -89 67 -162 139 -98 9 9 17
20 17 25 0 14 -22 9 -35 -9 -17 -23 -74 -21 -91 2 -8 10 -14 30 -14 43 0 61
53 88 102 52 39 -29 51 -15 15 16 -29 25 -56 29 -95 14z"/>
<path d="M1482 236 c3 -86 20 -119 26 -51 3 35 3 35 52 35 l49 0 3 -37 c6 -70
23 -34 26 53 2 67 0 85 -10 82 -7 -3 -14 -21 -16 -41 l-3 -37 -49 0 -49 0 -3
37 c-2 20 -9 38 -16 41 -10 3 -12 -15 -10 -82z"/>
<path d="M1772 312 c-22 -3 -23 -7 -20 -85 l3 -82 63 0 c35 0 62 4 62 10 0 6
-20 10 -45 10 -83 0 -91 52 -8 57 55 3 57 22 2 24 -46 1 -58 9 -52 34 4 17 14
20 54 20 27 0 49 4 49 8 0 8 -61 10 -108 4z"/>
<path d="M2003 313 c-15 -5 -19 -163 -5 -163 5 0 13 26 18 58 l9 57 27 -57
c15 -32 29 -58 32 -58 3 0 19 28 35 63 l29 62 1 -62 c1 -49 4 -63 16 -63 12 0
15 16 15 80 0 74 -2 80 -21 80 -15 0 -27 -14 -45 -55 -14 -30 -27 -55 -30 -55
-2 0 -15 24 -28 54 -25 57 -34 66 -53 59z"/>
<path d="M2295 308 c-10 -24 -1 -163 10 -163 13 0 19 155 6 168 -7 7 -12 5
-16 -5z"/>
<path d="M2474 310 c-70 -28 -69 -133 1 -160 29 -11 94 6 102 26 9 24 -5 29
-26 10 -12 -11 -31 -16 -52 -14 -64 6 -74 93 -14 120 22 10 30 8 55 -10 35
-26 40 -27 40 -7 0 15 -49 45 -72 44 -7 0 -23 -4 -34 -9z"/>
<path d="M2753 308 c-19 -26 -74 -161 -67 -167 3 -3 13 4 21 17 21 31 102 32
121 2 7 -12 17 -18 22 -15 10 6 -62 167 -77 172 -6 2 -14 -2 -20 -9z m34 -59
c15 -38 10 -49 -23 -49 -27 0 -30 15 -12 55 15 33 21 32 35 -6z"/>
<path d="M2960 318 c-1 -2 -2 -40 -4 -86 -4 -93 -1 -96 82 -90 56 4 49 23 -8
23 l-45 0 -3 78 c-2 42 -7 77 -12 77 -6 0 -10 -1 -10 -2z"/>
<path d="M3202 304 c-16 -11 -22 -24 -20 -42 3 -23 10 -28 52 -37 52 -11 66
-26 46 -50 -17 -21 -43 -19 -73 5 -25 20 -43 15 -29 -6 38 -59 157 -27 137 36
-6 19 -12 22 -70 35 -35 8 -48 24 -33 42 14 18 53 16 68 -2 7 -8 17 -12 22 -9
16 10 -23 44 -51 44 -15 0 -37 -7 -49 -16z"/>
<path d="M3630 300 c-7 -13 -8 -26 -1 -37 6 -12 3 -24 -11 -43 -23 -32 -16
-54 22 -70 22 -9 36 -9 64 1 28 10 38 10 51 -1 23 -19 31 -3 10 20 -17 19 -17
21 -1 39 11 12 13 21 7 25 -5 4 -15 -3 -22 -15 -11 -21 -11 -21 -31 -2 -17 18
-18 23 -6 42 18 29 0 55 -40 59 -23 2 -34 -2 -42 -18z m67 -16 c3 -9 0 -20 -8
-24 -15 -10 -39 6 -39 26 0 19 39 18 47 -2z m-6 -72 c42 -35 -1 -71 -45 -39
-13 10 -16 20 -12 35 9 27 27 28 57 4z"/>
<path d="M4123 310 c-31 -13 -56 -65 -48 -101 8 -35 49 -69 84 -69 32 0 71 25
71 46 0 12 -5 11 -26 -5 -32 -25 -52 -26 -82 -5 -44 31 -17 124 37 124 10 0
30 -10 45 -21 32 -25 48 -17 20 11 -23 23 -71 33 -101 20z"/>
<path d="M4345 308 c-3 -8 -5 -48 -3 -88 l3 -73 58 0 c67 1 83 16 17 17 l-45
1 -3 70 c-3 69 -16 103 -27 73z"/>
<path d="M4572 233 l3 -88 59 -3 c32 -2 64 2 69 7 12 12 13 12 -58 14 -46 2
-50 4 -53 29 -3 26 -1 27 50 30 64 4 62 22 -2 23 -41 0 -45 2 -45 25 0 23 4
25 49 26 79 1 71 24 -9 24 l-66 0 3 -87z"/>
<path d="M4831 238 c-21 -46 -34 -85 -28 -87 6 -2 16 4 22 13 16 22 103 23
111 1 6 -15 35 -22 33 -7 -1 19 -76 156 -87 160 -7 2 -27 -29 -51 -80z m67 17
c19 -42 15 -55 -18 -55 -34 0 -34 1 -18 47 14 40 21 41 36 8z"/>
<path d="M5067 313 c-2 -5 -3 -15 -2 -23 1 -8 3 -45 3 -82 2 -87 22 -90 22 -3
0 36 4 65 9 65 5 0 26 -27 47 -59 21 -33 47 -62 56 -65 16 -4 18 4 18 75 0 43
0 81 0 84 0 3 -3 6 -7 8 -5 1 -9 -26 -11 -60 -2 -35 -6 -63 -10 -63 -4 0 -23
24 -42 52 -50 74 -72 92 -83 71z"/>
<path d="M5335 308 c-10 -24 -1 -163 10 -163 13 0 19 155 6 168 -7 7 -12 5
-16 -5z"/>
<path d="M5608 314 c-5 -4 -8 -34 -8 -66 0 -32 -4 -58 -9 -58 -4 0 -25 27 -45
60 -25 40 -44 60 -57 60 -17 0 -19 -8 -19 -85 0 -50 4 -85 10 -85 6 0 10 28
10 65 0 36 4 65 8 65 5 0 26 -27 47 -60 34 -53 61 -78 72 -66 2 2 3 43 1 91
-2 48 -6 83 -10 79z"/>
<path d="M5783 305 c-57 -24 -70 -84 -29 -132 34 -39 98 -39 132 0 37 43 32
57 -21 57 -25 0 -45 -4 -45 -10 0 -5 14 -10 31 -10 37 0 35 -19 -4 -38 -22
-11 -32 -11 -54 0 -22 10 -29 21 -31 51 -4 44 8 62 45 72 19 4 35 0 54 -14 33
-25 39 -26 39 -6 0 15 -49 45 -72 45 -7 -1 -27 -7 -45 -15z"/>
<path d="M6167 313 c-4 -3 -7 -41 -7 -83 l0 -78 31 -6 c58 -11 99 -7 99 10 0
9 -8 14 -17 13 -10 -1 -33 -1 -51 0 -30 1 -33 4 -30 28 3 24 7 27 43 27 58 1
60 20 3 24 -43 3 -48 5 -48 28 0 23 3 24 56 24 34 0 53 4 49 10 -7 11 -118 14
-128 3z"/>
<path d="M6408 290 c-26 -27 -30 -36 -25 -67 7 -42 42 -83 71 -83 12 0 30 -7
40 -15 11 -8 29 -15 40 -14 21 0 21 0 0 15 l-22 15 24 24 c35 35 33 88 -5 126
-40 40 -82 39 -123 -1z m100 -6 c27 -19 30 -78 5 -106 -36 -40 -103 -6 -103
52 0 33 30 70 58 70 10 0 28 -7 40 -16z"/>
<path d="M6666 313 c-8 -8 -8 -71 0 -112 13 -62 105 -79 140 -26 17 26 16 134
-1 138 -6 1 -11 -25 -13 -61 -3 -53 -6 -64 -27 -78 -23 -15 -27 -15 -50 0 -22
14 -25 24 -25 76 0 55 -9 78 -24 63z"/>
<path d="M7078 313 c-15 -4 -18 -17 -18 -84 0 -43 4 -79 9 -79 5 0 11 12 13
28 3 24 8 27 43 30 64 5 92 44 62 85 -12 18 -76 29 -109 20z m76 -26 c10 -7
16 -22 14 -33 -5 -27 -81 -28 -86 -1 -8 39 36 60 72 34z"/>
<path d="M7300 235 c0 -50 4 -85 10 -85 6 0 10 22 10 49 0 28 4 52 9 55 5 3
18 -16 30 -44 12 -27 25 -51 30 -54 12 -8 29 14 44 59 22 62 37 56 37 -14 0
-34 4 -61 10 -61 6 0 10 35 10 86 0 83 -1 85 -22 82 -17 -2 -28 -17 -43 -55
-11 -29 -23 -53 -27 -53 -4 0 -21 27 -38 60 -44 87 -60 81 -60 -25z"/>
<path d="M7623 312 c-22 -3 -23 -8 -23 -83 l0 -79 71 0 c44 0 68 4 64 10 -3 6
-29 10 -56 10 -49 0 -50 1 -47 28 3 25 7 27 45 27 57 0 55 19 -2 23 -41 3 -46
6 -43 25 3 19 9 22 53 23 28 0 49 4 48 9 -3 8 -71 12 -110 7z"/>
<path d="M7846 313 c-3 -4 -6 -42 -6 -85 0 -61 3 -78 15 -78 10 0 15 16 17 61
l3 62 33 -52 c41 -62 61 -83 73 -76 12 8 12 175 -1 175 -6 0 -10 -28 -10 -65
0 -36 -3 -65 -7 -65 -5 0 -26 27 -48 60 -39 58 -57 75 -69 63z"/>
<path d="M8080 310 c0 -5 12 -10 28 -12 26 -3 27 -5 32 -77 7 -105 28 -107 32
-4 3 78 3 78 33 84 38 8 35 9 -52 14 -40 2 -73 0 -73 -5z"/>
<path d="M6920 230 c0 -64 3 -80 15 -80 12 0 15 16 15 80 0 64 -3 80 -15 80
-12 0 -15 -16 -15 -80z"/>
</g>
</svg>
